<?xml version="1.0" encoding="UTF-8" standalone="no"?>
<!-- Created with Inkscape (http://www.inkscape.org/) -->

<svg
   width="250mm"
   height="185.7375mm"
   viewBox="0 0 250 185.7375"
   version="1.1"
   id="svg1"
   xml:space="preserve"
   inkscape:version="1.4.3 (0d15f75, 2025-12-25)"
   sodipodi:docname="flatshoulder-hollowsocketspade.svg"
   xmlns:inkscape="http://www.inkscape.org/namespaces/inkscape"
   xmlns:sodipodi="http://sodipodi.sourceforge.net/DTD/sodipodi-0.dtd"
   xmlns="http://www.w3.org/2000/svg"
   xmlns:svg="http://www.w3.org/2000/svg"><sodipodi:namedview
     id="namedview1"
     pagecolor="#ffffff"
     bordercolor="#666666"
     borderopacity="1.0"
     inkscape:showpageshadow="2"
     inkscape:pageopacity="0.0"
     inkscape:pagecheckerboard="0"
     inkscape:deskcolor="#d1d1d1"
     inkscape:document-units="mm"
     inkscape:zoom="0.99676508"
     inkscape:cx="243.28701"
     inkscape:cy="266.86328"
     inkscape:window-width="1421"
     inkscape:window-height="659"
     inkscape:window-x="0"
     inkscape:window-y="30"
     inkscape:window-maximized="0"
     inkscape:current-layer="layer1" /><defs
     id="defs1" /><g
     inkscape:label="Layer 1"
     inkscape:groupmode="layer"
     id="layer1"
     transform="translate(2.5135381,-56.620831)"><path
       style="fill:#000000;stroke-width:1"
       d="m 34.930759,216.32611 c -0.38579,-0.42629 -0.40883,-0.79497 -0.18601,-2.97658 1.32319,-12.95473 1.30331,-63.51273 0.39444,-79.3082 -0.17591,-3.05707 -0.0312,-3.30051 1.84722,-3.10778 6.3847,-0.59452 14.3681,3.2161 20.62208,1.13522 1.61203,-0.63158 -2.57827,-47.495338 -1.43583,-49.629962 0.32828,-0.613403 8.75632,-1.523249 11.81106,-1.834901 4.6411,-0.316187 7.49265,0.594778 12.07866,-0.421628 1.35566,-0.309041 3.3821,-0.799152 4.2029,-0.32109 1.02687,0.40721 1.1871,1.945261 1.67075,2.77884 0.34149,0.52118 -1.89046,47.711321 -1.16611,48.584041 0.96456,1.16226 22.042431,-1.19505 22.855621,-0.38404 0.0824,0.0821 0.0627,3.08528 -0.0437,6.67363 -2.25723,76.13236 3.38602,76.07889 0.84596,78.61896 -1.19059,1.19058 -2.31144,-0.81722 -3.06658,-0.81992 -20.743271,-7.58332 -43.558231,-9.10629 -64.237261,0.0377 -1.49338,0.0913 -5.38867,2.10521 -6.01235,1.42815 z"
       id="path2"
       sodipodi:nodetypes="cssscssssssssssscc" /><path
       style="fill:#000000"
       d="m 139.51554,216.87383 c -1.29823,-0.70514 -1.40853,-2.49987 -1.04852,-17.0595 -0.38678,-17.22244 2.13051,-35.17784 1.00398,-52.31719 -0.37497,-5.4718 -0.45747,-5.65769 -2.47433,-5.575 -0.60783,0.0249 -1.29244,-0.11012 -1.52136,-0.3001 -0.55792,-0.46304 -0.52707,-1.26101 0.0609,-1.57569 1.46738,-0.78531 17.01094,-1.01091 17.9364,-1.3612 0.30479,-0.11537 1.51672,-0.14378 2.69318,-0.0632 7.24333,0.49646 -4.89968,-51.754933 -1.34024,-56.891238 1.16504,-1.681141 2.66035,-1.948633 4.73289,-0.846651 5.9492,2.088795 12.77048,2.351869 19.42147,0.01593 2.2711,-0.840144 3.9325,-1.253721 4.41773,-1.099715 2.99919,0.951907 -0.499,53.681184 1.6541,57.221814 1.44508,2.37623 24.04425,-1.05919 24.81307,-0.008 0.8754,1.19718 0.15546,2.4388 -1.65232,2.84963 -1.45736,0.3312 -1.76031,0.77159 -2.14589,3.11951 -2.1936,13.35773 7.5922,65.05405 5.5894,66.77499 -0.90235,0.77537 -1.19014,0.79155 -2.0499,0.11527 -1.54232,-1.2132 -37.7117,-12.76853 -68.43767,1.69284 -1.2508,1.13196 1.51182,7.02619 -1.65292,5.3072 z m 28.88031,-105.38797 c -2.36318,1.74718 -0.92056,8.04154 1.71304,7.4742 5.26979,-0.88063 2.77259,-10.30129 -1.71304,-7.4742 z"
       id="path1"
       sodipodi:nodetypes="cscsssscsssssssssssccccc" /></g></svg>
