<?xml version="1.0" encoding="UTF-8" standalone="no"?>
<!-- Created with Inkscape (http://www.inkscape.org/) -->

<svg
   width="350mm"
   height="198.96666mm"
   viewBox="0 0 349.99999 198.96666"
   version="1.1"
   id="svg1"
   xml:space="preserve"
   inkscape:version="1.4.3 (0d15f75, 2025-12-25)"
   sodipodi:docname="flathandlespade.svg"
   xmlns:inkscape="http://www.inkscape.org/namespaces/inkscape"
   xmlns:sodipodi="http://sodipodi.sourceforge.net/DTD/sodipodi-0.dtd"
   xmlns="http://www.w3.org/2000/svg"
   xmlns:svg="http://www.w3.org/2000/svg"><sodipodi:namedview
     id="namedview1"
     pagecolor="#ffffff"
     bordercolor="#666666"
     borderopacity="1.0"
     inkscape:showpageshadow="2"
     inkscape:pageopacity="0.0"
     inkscape:pagecheckerboard="0"
     inkscape:deskcolor="#d1d1d1"
     inkscape:document-units="mm"
     inkscape:zoom="0.35454813"
     inkscape:cx="438.58643"
     inkscape:cy="406.15078"
     inkscape:window-width="1403"
     inkscape:window-height="697"
     inkscape:window-x="0"
     inkscape:window-y="30"
     inkscape:window-maximized="0"
     inkscape:current-layer="layer1" /><defs
     id="defs1" /><g
     inkscape:label="Layer 1"
     inkscape:groupmode="layer"
     id="layer1"
     transform="translate(56.091671,-50.006252)"><path
       style="display:inline;fill:#000000"
       d="m 187.09577,213.59105 c -1.45656,-2.23339 0.72244,-25.11445 1.12649,-42.42192 0.96652,-32.71914 -0.1743,-49.2098 1.19656,-52.12291 2.49502,-5.30179 17.50327,0.97856 18.71828,-0.98755 1.03886,-1.68094 -2.5412,-23.763567 -3.96247,-31.90239 -0.24221,-1.386939 -0.20832,-1.657797 0.34758,-2.778125 0.54315,-1.094628 0.86795,-1.36913 2.74794,-2.322369 8.42287,-3.474133 18.49032,-1.129771 26.77424,-1.889414 1.47259,-0.226755 4.09056,1.98245 5.90199,4.980455 3.60971,5.974306 -4.482,32.419973 -2.38516,33.715883 0.57905,0.35798 12.1801,-2.28017 16.26676,-1.05026 1.3639,0.41047 2.43326,1.07233 2.78032,1.7208 1.04065,1.9445 1.06274,31.27984 1.05607,36.62859 -0.0175,15.47297 4.03655,53.57292 2.38406,57.91884 -0.13265,0.3489 -0.69114,0.97349 -1.24108,1.38797 -0.54994,0.41448 -1.21218,0.96196 -1.47164,1.21663 -0.25946,0.25466 -0.62873,0.46302 -0.8206,0.46302 -1.22311,0 -13.98465,-5.0522 -17.53483,-11.01417 -4.2203,-8.21749 -6.84264,-17.15519 -9.92932,-25.85577 -1.30872,-3.72003 -10.12589,-1.94453 -10.52317,-1.61024 -2.37751,2.00052 -4.839,17.41361 -9.22665,23.96826 -9.32461,13.92988 -17.57137,14.51192 -18.88452,14.51192 -1.06254,-0.85607 -2.52341,-1.43085 -3.32085,-2.55725 z"
       id="path2"
       sodipodi:nodetypes="sssssssssssscssssssssss" /><path
       d="m -22.640215,216.91166 c -1.07416,-1.07416 -2.12801,-4.14299 -2.26446,-6.28385 -0.10659,-1.67242 -0.0521,-1.94192 0.56217,-2.77813 0.99433,-1.35368 1.23405,-2.02602 1.50936,-4.23333 0.47904,-3.84071 1.08395,-15.91691 1.4181,-28.31042 0.0608,-2.25557 0.1914,-5.88698 0.29019,-8.06979 0.22774,-5.03201 0.26314,-23.44171 0.0588,-30.55938 -0.16454,-5.73045 -0.34994,-6.83614 -1.3196,-7.86985 -0.48626,-0.51837 -0.59497,-0.9182 -0.56689,-2.08494 0.0461,-1.91626 0.55418,-3.648 1.30931,-4.4628 0.87883,-0.94827 2.28639,-0.91037 3.28522,0.0884 1.40425,1.40425 16.8291299,2.82535 14.3195799,-4.77187 -0.76219,-5.04388 -9.9870599,-32.574801 -6.0103899,-33.723671 21.62905,-2.92151 39.54285,-3.6534 47.71444,-2.80769 1.61254,0.16689 3.07206,-0.24569 3.91048,1.76095 0.49143,1.17616 0.17237,2.2676 -1.06245,3.6344 -3.55933,9.75106 -6.81962,23.215651 -7.27697,33.692011 0,0.42073 0.3118,0.88091 0.90178,1.33091 1.07708,0.82153 1.71238,0.85092 8.8878,0.41112 5.21367,-0.31956 6.27533,-0.52319 7.02047,-1.34656 0.62209,-0.6874 1.52135,-0.65677 2.37911,0.0811 0.92004,0.79138 1.1767,2.89937 0.89102,7.31819 -0.29719,4.59704 -0.26657,26.98585 0.0467,34.15031 0.43587,9.96805 1.3067,20.01006 2.2256,25.66458 0.201,1.23693 0.44292,3.26099 0.53758,4.49792 0.0947,1.23692 0.56354,4.57067 1.04195,7.40833 0.70093,4.15748 0.85868,5.77593 0.81235,8.33437 -0.0891,4.92167 -0.8424,6.25755 -3.5515,6.29842 -1.25509,0.0189 -1.43223,-0.0606 -2.41664,-1.08508 -2.7954,-2.90916 -13.95077,-0.26211 -14.0245,-0.17328 -0.17523,0.21114 -0.73215,0.3839 -1.23758,0.3839 -0.85125,0 -4.13303,-0.40359 -5.36885,-6.47139 -1.66348,-8.16751 -4.86523,-17.73793 -6.69143,-19.37132 -4.31656,-3.8608 -5.13789,-1.31302 -11.33397,-2.29771 -7.5068604,0.0322 -4.2782304,26.77182 -18.2797701,29.14673 -11.8780999,-2.4379 -11.8197299,-0.93165 -12.6971999,0.58491 -1.26106,2.17951 -1.82663,2.64215 -3.23004,2.64215 -0.87215,0 -1.23812,-0.17599 -1.78974,-0.72761 z m 107.42481,0.10108 c 0,-1.89763 -1.98548,-1.28576 -1.60284,-4.13597 0.28697,-2.1376 0.94111,-10.01751 1.32883,-16.0073 0.13188,-2.03729 0.36067,-4.71619 0.50843,-5.95312 0.14776,-1.23693 0.25249,-2.72521 0.23273,-3.30729 -0.0197,-0.58209 0.0411,-1.71318 0.13515,-2.51354 0.75766,-6.44531 1.26908,-32.94267 0.85281,-44.18542 -0.32455,-8.76584 -0.73641,-14.71473 -1.10822,-16.00729 -0.65002,-2.25974 0.002,-5.5009 1.26735,-6.30345 1.28214,-0.81297 2.13127,-0.78432 3.49329,0.11784 1.06106,0.70282 1.56404,0.85416 3.03446,0.91304 7.179145,0.2875 9.310725,0.3995 10.295385,0.54093 1.05186,0.15108 1.12428,0.12112 1.12137,-0.46384 -1.23761,-10.119 -1.64546,-22.561971 -6.605455,-31.705461 -1.4698,-2.65705 -0.19846,-5.62631 1.49486,-5.80786 6.097765,-0.65377 20.935345,-1.35543 35.006785,-1.37326 1.34516,-0.002 3.46647,2.39832 3.88402,3.39766 0.37106,0.88808 0.35464,1.00817 -0.31311,2.28998 -0.94925,1.82217 -5.95118,31.193391 -5.21028,32.358591 0.44025,0.69238 1.66007,0.88848 3.85394,0.61957 1.18574,-0.14534 3.46558,-0.39498 5.06631,-0.55476 1.60073,-0.15978 3.80338,-0.40824 4.89479,-0.55215 2.32031,-0.30593 2.75444,-0.31479 3.88636,-0.0793 1.3227,0.27515 1.4549,1.0004 1.55826,8.54842 0.54647,39.92628 8.63326,83.59314 8.03477,86.08788 -0.30795,1.28372 -0.36775,1.34587 -2.05398,2.13496 -0.99517,0.46569 -2.34174,0.86291 -3.15349,0.93022 -3.44387,-0.26267 -8.32834,-4.56568 -11.41097,-6.64146 -9.22558,-6.20472 -2.14081,-10.30613 -17.42439,-37.61683 -0.21627,-0.38646 -0.65016,-0.4048 -4.19254,-0.17726 -2.17322,0.1396 -4.57643,0.39908 -5.34047,0.57663 -4.893,1.137 -8.85717,26.5026 -14.74374,33.81743 -3.478795,4.32286 -8.796605,10.1899 -14.912155,11.65424 -0.2422,-0.0136 -1.87826,0.25035 -1.87826,-0.6018 z"
       style="display:inline;fill:#000000"
       id="path1" /></g></svg>
