<?xml version="1.0" encoding="UTF-8" standalone="no"?>
<!-- Created with Inkscape (http://www.inkscape.org/) -->

<svg
   width="350mm"
   height="200mm"
   viewBox="0 0 350 200"
   version="1.1"
   id="svg1"
   xml:space="preserve"
   inkscape:version="1.4.3 (0d15f75, 2025-12-25)"
   sodipodi:docname="hollowsocketspade.svg"
   xmlns:inkscape="http://www.inkscape.org/namespaces/inkscape"
   xmlns:sodipodi="http://sodipodi.sourceforge.net/DTD/sodipodi-0.dtd"
   xmlns="http://www.w3.org/2000/svg"
   xmlns:svg="http://www.w3.org/2000/svg"><sodipodi:namedview
     id="namedview1"
     pagecolor="#ffffff"
     bordercolor="#666666"
     borderopacity="1.0"
     inkscape:showpageshadow="2"
     inkscape:pageopacity="0.0"
     inkscape:pagecheckerboard="0"
     inkscape:deskcolor="#d1d1d1"
     inkscape:document-units="mm"
     inkscape:zoom="0.44762498"
     inkscape:cx="637.8107"
     inkscape:cy="383.13322"
     inkscape:window-width="1341"
     inkscape:window-height="584"
     inkscape:window-x="0"
     inkscape:window-y="30"
     inkscape:window-maximized="0"
     inkscape:current-layer="layer1" /><defs
     id="defs1" /><g
     inkscape:label="Layer 1"
     inkscape:groupmode="layer"
     id="layer1"
     transform="translate(44.317715,-51.593746)"><path
       style="fill:#000000;stroke-width:1"
       d="m 193.09513,215.1465 c -0.38579,-0.42629 -0.40883,-0.79497 -0.18601,-2.97658 1.32319,-12.95473 1.30331,-63.51273 0.39444,-79.3082 -0.17591,-3.05707 -0.0312,-3.30051 1.84722,-3.10778 6.3847,-0.59452 14.3681,3.2161 20.62208,1.13522 1.61203,-0.63158 -2.57827,-47.495335 -1.43583,-49.629959 0.32828,-0.613403 8.75632,-1.523249 11.81106,-1.834901 4.6411,-0.316187 7.49265,0.594778 12.07866,-0.421628 1.35566,-0.309041 3.3821,-0.799152 4.2029,-0.32109 1.02687,0.40721 1.1871,1.945261 1.67075,2.77884 0.34149,0.52118 -1.89046,47.711318 -1.16611,48.584038 0.96456,1.16226 22.04243,-1.19505 22.85562,-0.38404 0.0824,0.0821 0.0627,3.08528 -0.0437,6.67363 -2.25723,76.13236 3.38602,76.07889 0.84596,78.61896 -1.19059,1.19058 -2.31144,-0.81722 -3.06658,-0.81992 -20.74327,-7.58332 -43.55823,-9.10629 -64.23726,0.0377 -1.49338,0.0913 -5.38867,2.10521 -6.01235,1.42815 z"
       id="path2"
       sodipodi:nodetypes="cssscssssssssssscc" /><path
       d="m -2.1755421,217.16154 c -0.131253,-0.21237 0.105841,-2.57384 0.763037,-7.5999 1.378057,-10.53902 1.797215,-15.66105 2.27346,-27.78125 0.413516,-10.5238 -0.128126,-38.43595 -0.859642,-44.29946 -0.155568,-1.24697 -0.29012,-2.68393 -0.299004,-3.19325 -0.02372,-1.35993 -0.419726,-5.6247 -0.759644,-8.18098 -0.272172,-2.04681 -0.257144,-2.25644 0.184921,-2.57968 0.264641,-0.19352 0.785831,-0.35141 1.1582,-0.35088 2.233707,0.003 19.0468101,8.63347 20.4387581,7.77318 0.185788,-0.11482 0.231569,-0.91896 0.132153,-2.32127 -1.57768,-14.64001 -2.036643,-30.072436 -4.677199,-44.594676 -0.147245,-0.77642 -0.267718,-1.61999 -0.267718,-1.87459 0,-1.03745 4.300629,-2.14749 8.202083,-2.11705 1.236927,0.01 3.275439,-0.0528 4.530027,-0.13882 2.572947,-0.17637 5.960436,0.20238 6.479186,0.72444 1.257154,1.26515 -4.131509,50.220736 -1.866495,50.220736 0.784867,-0.44791 19.607645,-9.14597 20.516818,-8.90458 1.289312,0.34231 1.298718,0.37642 1.036025,3.75626 -0.637369,8.20046 -0.869649,17.70947 -0.720364,29.48999 0.164046,12.94538 0.368287,16.64954 1.393218,25.26771 0.346126,2.91042 0.692992,6.18464 0.770814,7.27604 0.07782,1.09141 0.270982,2.87735 0.429245,3.96875 0.158264,1.09141 0.337235,2.52016 0.397715,3.175 0.06048,0.65485 0.238321,2.0836 0.395203,3.175 0.156883,1.09141 0.379033,2.77475 0.493667,3.74076 0.114634,0.96601 0.273376,1.86147 0.352759,1.98991 0.07938,0.12845 0.229236,1.36214 0.333007,2.74154 0.103771,1.3794 0.28865,2.77432 0.410842,3.09983 0.382012,1.01762 0.808172,5.16146 0.55668,5.41295 -2.848985,-1.3893 -9.613439,-12.4336 -11.238256,-14.73603 -6.974882,-9.77091 -10.413249,-13.93504 -12.869443,-15.58589 -1.989837,-1.3374 -3.000426,-1.65722 -5.97669,-1.89144 -4.409235,-0.34698 -7.624595,0.76916 -10.256136,3.56017 -9.7139606,10.30261 -17.2776691,30.61852 -21.4572271,30.77748 z m 89.0381291,-0.19138 c 0.943351,0 -1.189476,-0.40377 -0.749794,-3.62766 3.113151,-22.82664 3.764221,-58.90492 3.194081,-73.77244 -0.01989,-0.51871 -0.349693,-0.54807 -0.01148,-1.35753 0.4544,-1.08753 2.164289,-2.36002 3.07853,-2.29101 6.192735,-1.15675 19.126616,-4.99876 19.279446,-12.21718 0.19191,-9.06333 -5.34462,-43.911036 -0.99275,-43.323986 7.70735,1.0397 18.88041,0.23916 26.6268,-0.35888 2.29812,0.91737 0.98688,6.32608 0.83057,8.2287 -0.18236,2.21459 -0.71485,18.340536 -0.92003,29.897916 0.41268,3.05296 -1.80312,10.08785 2.33652,11.64036 5.45727,2.76482 11.70989,3.29042 17.18341,6.00291 0.94106,0.5877 1.25837,1.21099 0.77012,1.51275 -0.3142,0.19418 -0.33242,10.53761 -0.025,14.18149 0.54153,20.00923 4.01541,39.82312 5.53616,59.66354 0.0183,0.7276 0.15586,1.95773 0.30573,2.73362 0.14987,0.77589 0.20222,1.69069 0.11633,2.03289 -0.19326,0.77 -1.18761,1.14611 -1.58998,0.60141 -8.37616,-6.75432 -19.78515,-10.12785 -30.20402,-12.14936 -12.73905,-2.37337 -28.45981,4.28019 -38.743879,10.52082 -0.511399,0.33771 -1.485041,0.78111 -2.16365,0.98534 -0.678608,0.20423 -1.588258,0.6237 -2.021445,0.93216 -0.9178,0.65353 -3.024864,0.16414 -1.835696,0.16414 z"
       style="display:inline;fill:#000000"
       id="path1" /></g></svg>
