<?xml version="1.0" encoding="UTF-8" standalone="no"?>
<!-- Created with Inkscape (http://www.inkscape.org/) -->

<svg
   width="300mm"
   height="182.03334mm"
   viewBox="0 0 300.00001 182.03334"
   version="1.1"
   id="svg1"
   xml:space="preserve"
   inkscape:version="1.4.3 (0d15f75, 2025-12-25)"
   sodipodi:docname="knifecoin.svg"
   xmlns:inkscape="http://www.inkscape.org/namespaces/inkscape"
   xmlns:sodipodi="http://sodipodi.sourceforge.net/DTD/sodipodi-0.dtd"
   xmlns="http://www.w3.org/2000/svg"
   xmlns:svg="http://www.w3.org/2000/svg"><sodipodi:namedview
     id="namedview1"
     pagecolor="#ffffff"
     bordercolor="#666666"
     borderopacity="1.0"
     inkscape:showpageshadow="2"
     inkscape:pageopacity="0.0"
     inkscape:pagecheckerboard="0"
     inkscape:deskcolor="#d1d1d1"
     inkscape:document-units="mm"
     inkscape:zoom="0.3583048"
     inkscape:cx="326.53763"
     inkscape:cy="266.53285"
     inkscape:window-width="1440"
     inkscape:window-height="666"
     inkscape:window-x="0"
     inkscape:window-y="30"
     inkscape:window-maximized="0"
     inkscape:current-layer="layer1" /><defs
     id="defs1" /><g
     inkscape:label="Layer 1"
     inkscape:groupmode="layer"
     id="layer1"
     transform="translate(-16.404163,-58.472912)"><path
       style="fill:#000000"
       d="m 72.002139,217.53752 c -0.87956,0 -1.32014,-0.18865 -2.19131,-0.93833 -2.80468,-2.41353 -3.1441,-2.91301 -3.579288,-5.26716 -0.427797,-2.31416 -0.364165,-3.11166 0.437848,-5.48762 0.94335,-2.79467 2.29795,-4.35741 4.67445,-5.39273 1.91989,-0.83639 1.78604,-0.54983 2.27683,-4.87457 0.62477,-9.45623 2.42493,-19.33113 2.5081,-28.7073 0,-2.06285 -0.0168,-2.11843 -0.66146,-2.18616 -1.67541,-0.17603 -2.67263,-0.62793 -2.94322,-1.33377 -0.018,-7.74332 -0.42218,-15.24012 -1.02659,-22.9384 -0.97618,-12.93754 -6.348942,-33.61433 -6.348942,-34.35078 0,-2.83837 6.834552,-11.430875 12.296292,-22.465075 0.85834,-1.73405 1.53241,-2.449666 2.10169,-2.231211 1.63879,0.628863 9.40652,32.924476 8.11323,66.319446 -0.57653,17.24641 -4.04629,34.28345 -7.04899,51.25366 -0.46853,2.69895 -0.46853,2.69895 0.24449,3.70417 0.39217,0.55286 1.04938,1.48146 1.46048,2.06354 0.93305,1.32112 1.6187,3.33287 1.61669,4.74349 0.004,8.22794 -5.83238,8.67476 -11.9303,8.0888 z m 5.58834,-4.60573 c 1.57422,-1.24573 3.25307,-3.50117 0.44411,-6.42419 -1.21078,-1.25995 -1.5672,-1.47706 -2.61952,-1.59567 -1.81779,-0.20489 -4.04581,0.86871 -4.62835,2.23024 -1.57971,3.80278 0.87024,6.3717 4.7095,6.67427 0.70322,0.0125 1.25528,-0.22074 2.09426,-0.88465 z m 57.106991,5.48807 c -2.31955,0 -4.72592,0.74336 -5.8897,-1.91498 -3.9632,-6.83904 -1.53617,-11.74897 -0.87578,-12.85798 3.93813,-6.61339 6.19727,-32.92431 6.87575,-41.99527 0.13303,-1.77861 0.13303,-1.77861 -0.98081,-2.05636 -1.67134,-0.41677 -1.87794,-0.60186 -2.24597,-2.01213 -0.69682,-2.67008 2.09203,-28.67694 -5.22832,-59.945866 -0.5177,-2.171246 -0.96072,-4.649431 -0.9845,-5.507078 -0.13699,-3.172807 12.32479,-11.360517 14.85274,-10.468067 0.63676,0.224798 1.38697,0.408723 1.66714,0.408723 2.2248,0 6.76913,66.914758 5.55216,72.848998 -0.30337,1.47925 -0.85712,5.01127 -1.23056,7.84892 -1.60902,11.89921 -3.45789,23.75683 -4.64696,35.71875 -0.12992,1.39577 -0.0693,5.01397 0.13084,7.80521 0.73059,10.19082 -6.22685,12.12713 -6.99599,12.12713 z m 0.62383,-6.46958 c 0.88755,-0.4044 2.022,-2.56754 2.022,-3.85551 0,-0.83499 -0.17794,-1.20924 -0.91427,-1.92292 -0.74602,-0.72307 -1.13234,-0.89087 -2.09918,-0.9118 -0.96375,-0.0209 -1.33273,0.11595 -1.97692,0.73304 -1.13083,1.08324 -1.45234,2.02998 -1.24714,3.67237 0.0958,0.76688 0.25853,1.52254 0.36159,1.67925 0.56528,0.85952 2.59616,1.17864 3.85392,0.60557 z m 63.89092,6.47901 c -0.62108,0 -2.54662,-0.49304 -4.36563,-0.61425 -8.50708,-0.52758 -6.25304,-1.63006 -9.64534,-5.83377 -1.02431,-1.113 -1.28912,-1.90205 -1.28661,-3.83368 0.004,-3.10176 1.4874,-6.33265 3.39133,-7.38658 0.43656,-0.24166 1.43335,-1.03243 2.21509,-1.75727 1.32816,-1.23149 1.40744,-1.37401 1.20932,-2.17383 -0.55666,-2.24716 4.76607,-20.41777 5.35737,-31.94734 0.13733,-2.67797 0.1012,-3.0912 -0.29933,-3.42361 -0.39424,-0.3272 -1.62252,-0.61336 -5.34957,-1.24635 -0.54157,-0.092 -0.88475,-0.32883 -0.97467,-0.67272 0.35747,-10.60019 0.38238,-21.22627 -0.18024,-31.82841 -0.22963,-3.63326 -0.85931,-9.44041 -1.80742,-16.66875 -0.48202,-3.67491 -1.40686,-9.04127 -1.93792,-11.244794 -1.22044,-5.063868 -1.37877,-6.195216 -0.98154,-7.013567 0.52159,-1.074553 1.31162,-1.194764 6.06782,-0.92327 9.31992,1.514206 10.25007,-4.859973 15.13319,-10.033992 3.43866,-4.107653 -0.1602,36.950873 3.13561,55.707123 0.89599,5.09896 0.34677,16.57511 -1.49817,34.49496 -1.6289,15.82223 -4.07681,22.91804 -4.0822,25.81987 0,0.22196 0.59817,1.14103 1.32927,2.04237 6.38237,7.86855 -1.95803,19.07528 -4.05847,18.95037 -0.17243,-0.0103 -0.75075,-0.41251 -1.37184,-0.41251 z m 0.61956,-6.41818 c 0.78865,-0.56157 0.83565,-0.69019 0.83565,-2.28689 0,-1.87043 -0.77736,-4.37248 -1.65971,-5.34204 -1.1409,-1.25367 -4.26275,-1.48764 -5.68465,-0.42604 -0.80073,0.59783 -2.13739,2.87501 -2.16306,3.68507 -0.01,0.3051 0.36937,0.98021 0.84231,1.50025 0.47295,0.52004 1.148,1.32567 1.50011,1.7903 1.37356,1.81243 4.54121,2.35261 6.32935,1.07935 z m 46.88448,4.99725 c -1.19864,0 -6.66233,-7.35185 0.41587,-14.54713 0.93318,-0.94861 1.80513,-2.00039 1.93767,-2.33729 0.13255,-0.33689 0.24099,-1.43361 0.24099,-2.43715 2.59088,-10.63707 3.34972,-21.80126 4.87603,-32.66906 0.30238,-2.07417 0.29609,-2.43986 -0.0488,-2.83576 -0.29035,-0.3333 -0.52179,-0.38715 -0.86787,-0.20193 -0.86019,0.46036 -2.80786,-0.67109 -3.23183,-1.87745 -0.0806,-0.22948 -0.041,-2.13448 0.088,-4.23334 0.35789,-5.82079 0.48293,-17.07621 0.24226,-21.80777 -0.49739,-9.77885 -2.37992,-25.57439 -4.14663,-34.792711 -1.03679,-5.409762 -1.20669,-7.621855 -0.63803,-8.30705 5.19644,-2.738703 11.18467,-7.117948 16.2956,-9.420432 0.93178,-0.354261 1.90886,0.156148 2.228,1.16386 0.40943,1.29284 2.54112,21.826253 3.11689,45.006333 0.47319,19.04973 0.17842,28.05636 -1.1224,34.29477 -0.86873,12.51306 -4.97112,26.03591 -5.38332,38.25641 0.008,1.09248 -0.13961,1.89921 -0.44024,2.40814 -0.43813,0.7417 -0.42895,0.82161 0.29753,2.59049 0.63741,1.552 0.75138,2.20141 0.76147,4.33873 0.0102,2.16841 -0.0823,2.71336 -0.67346,3.96875 -1.79486,3.96632 -3.1828,3.74287 -6.27739,4.99317 -0.51667,0.26745 -7.42618,-1.55358 -7.67034,-1.55358 z m 8.67995,-9.65068 c 0,-0.59997 -0.93663,-1.19724 -1.87748,-1.19724 -2.65849,-0.82699 -5.70407,1.30224 -5.79183,4.00659 -0.0106,2.09036 3.2394,0.92944 3.68628,2.70993 4.0014,2.32856 5.52118,-1.21274 3.98303,-5.51928 z"
       id="path1"
       sodipodi:nodetypes="ssssssssscsssssssssssssssssssssscssssssssssssssssssssssssssscssssssssssssssssscssssssssssccssssssscssssssssss" /></g></svg>
