<?xml version="1.0" encoding="UTF-8" standalone="no"?>
<!-- Created with Inkscape (http://www.inkscape.org/) -->

<svg
   width="470mm"
   height="200mm"
   viewBox="0 0 469.99999 200"
   version="1.1"
   id="svg1"
   xml:space="preserve"
   inkscape:version="1.4.3 (0d15f75, 2025-12-25)"
   sodipodi:docname="spadecoin.svg"
   xmlns:inkscape="http://www.inkscape.org/namespaces/inkscape"
   xmlns:sodipodi="http://sodipodi.sourceforge.net/DTD/sodipodi-0.dtd"
   xmlns="http://www.w3.org/2000/svg"
   xmlns:svg="http://www.w3.org/2000/svg"><sodipodi:namedview
     id="namedview1"
     pagecolor="#ffffff"
     bordercolor="#666666"
     borderopacity="1.0"
     inkscape:showpageshadow="2"
     inkscape:pageopacity="0.0"
     inkscape:pagecheckerboard="0"
     inkscape:deskcolor="#d1d1d1"
     inkscape:document-units="mm"
     inkscape:zoom="0.17909209"
     inkscape:cx="323.85573"
     inkscape:cy="309.89643"
     inkscape:window-width="1396"
     inkscape:window-height="680"
     inkscape:window-x="0"
     inkscape:window-y="30"
     inkscape:window-maximized="0"
     inkscape:current-layer="layer1" /><defs
     id="defs1" /><g
     inkscape:label="Layer 1"
     inkscape:groupmode="layer"
     id="layer1"
     transform="translate(97.895836,-44.449997)"><path
       style="fill:#000000"
       d="m -45.700369,216.334 c -0.131253,-0.21237 0.105841,-2.57384 0.763037,-7.5999 1.378057,-10.53902 1.797215,-15.66105 2.27346,-27.78125 0.413516,-10.5238 -0.128126,-38.43595 -0.859642,-44.29946 -0.155568,-1.24697 -0.29012,-2.68393 -0.299004,-3.19325 -0.02372,-1.35993 -0.419726,-5.6247 -0.759644,-8.18098 -0.272172,-2.04681 -0.257144,-2.25644 0.184921,-2.57968 0.264641,-0.19352 0.785831,-0.35141 1.1582,-0.35088 2.233707,0.003 19.04681,8.63347 20.438758,7.77318 0.185788,-0.11482 0.231569,-0.91896 0.132153,-2.32127 -1.57768,-14.64001 -2.036643,-30.072429 -4.677199,-44.594672 -0.147245,-0.776421 -0.267718,-1.619983 -0.267718,-1.874582 0,-1.037452 4.300629,-2.147496 8.202083,-2.117054 1.236927,0.0097 3.275439,-0.05282 4.530027,-0.138816 2.572947,-0.176372 5.960436,0.20238 6.479186,0.724432 1.257154,1.26515 -4.131509,50.220732 -1.866495,50.220732 0.784867,-0.44791 19.6076441,-9.14597 20.516818,-8.90458 1.289312,0.34231 1.298718,0.37642 1.036025,3.75626 -0.637369,8.20046 -0.869649,17.70947 -0.720364,29.48999 0.164046,12.94538 0.368287,16.64954 1.393218,25.26771 0.346126,2.91042 0.692992,6.18464 0.770814,7.27604 0.07782,1.09141 0.270982,2.87735 0.429245,3.96875 0.158264,1.09141 0.337235,2.52016 0.397715,3.175 0.06048,0.65485 0.238321,2.0836 0.395203,3.175 0.156883,1.09141 0.379033,2.77475 0.493667,3.74076 0.114634,0.96601 0.273376,1.86147 0.352759,1.98991 0.07938,0.12845 0.229236,1.36214 0.333007,2.74154 0.103771,1.3794 0.28865,2.77432 0.410842,3.09983 0.382012,1.01762 0.808172,5.16146 0.55668,5.41295 -2.848985,-1.3893 -9.6134399,-12.4336 -11.2382569,-14.73603 -6.9748811,-9.77091 -10.4132481,-13.93504 -12.8694421,-15.58589 -1.989837,-1.3374 -3.000426,-1.65722 -5.97669,-1.89144 -4.409235,-0.34698 -7.624595,0.76916 -10.256136,3.56017 -9.713961,10.30261 -17.277669,30.61852 -21.457227,30.77748 z m 89.038129,-0.19138 c 0.943351,0 -1.189476,-0.40377 -0.749794,-3.62766 3.113151,-22.82664 3.764221,-58.90492 3.194081,-73.77244 -0.01989,-0.51871 -0.349693,-0.54807 -0.01148,-1.35753 0.4544,-1.08753 2.164289,-2.36002 3.07853,-2.29101 6.192735,-1.15675 19.126614,-4.99876 19.279445,-12.21718 0.191908,-9.06333 -5.344619,-43.911031 -0.99275,-43.323976 7.707347,1.039698 18.88041,0.239152 26.626804,-0.358887 2.29812,0.91737 0.98688,6.326079 0.83057,8.228699 -0.18236,2.21459 -0.71485,18.340534 -0.92003,29.897914 0.41268,3.05296 -1.80312,10.08785 2.33652,11.64036 5.457264,2.76482 11.709884,3.29042 17.183404,6.00291 0.94106,0.5877 1.25837,1.21099 0.77012,1.51275 -0.3142,0.19418 -0.33242,10.53761 -0.025,14.18149 0.54153,20.00923 4.01541,39.82312 5.53616,59.66354 0.0183,0.7276 0.15586,1.95773 0.30573,2.73362 0.14987,0.77589 0.20222,1.69069 0.11633,2.03289 -0.19326,0.77 -1.18761,1.14611 -1.58998,0.60141 -8.37616,-6.75432 -19.785144,-10.12785 -30.20402,-12.14936 -12.739046,-2.37337 -28.459811,4.28019 -38.743876,10.52082 -0.511399,0.33771 -1.485041,0.78111 -2.16365,0.98534 -0.678608,0.20423 -1.588258,0.6237 -2.021445,0.93216 -0.9178,0.65353 -3.024864,0.16414 -1.835696,0.16414 z m 102.68235,-0.33092 c -1.07416,-1.07416 -2.12801,-4.14299 -2.26446,-6.28385 -0.10659,-1.67242 -0.0521,-1.94192 0.56217,-2.77813 0.99433,-1.35368 1.23405,-2.02602 1.50936,-4.23333 0.47904,-3.84071 1.08395,-15.91691 1.4181,-28.31042 0.0608,-2.25557 0.1914,-5.88698 0.29019,-8.06979 0.22774,-5.03201 0.26314,-23.44171 0.0588,-30.55938 -0.16454,-5.73045 -0.34994,-6.83614 -1.3196,-7.86985 -0.48626,-0.51837 -0.59497,-0.9182 -0.56689,-2.08494 0.0461,-1.91626 0.55418,-3.648 1.30931,-4.4628 0.87883,-0.94827 2.28639,-0.91037 3.28522,0.0884 1.40425,1.40425 16.82913,2.82535 14.31958,-4.77187 -0.76219,-5.04388 -9.98706,-32.574796 -6.01039,-33.723668 21.62905,-2.92151 39.54285,-3.653406 47.71444,-2.807691 1.61254,0.166889 3.07206,-0.245688 3.91048,1.760946 0.49143,1.176162 0.17237,2.267602 -1.06245,3.634402 -3.55933,9.751058 -6.81962,23.215651 -7.27697,33.692011 0,0.42073 0.3118,0.88091 0.90178,1.33091 1.07708,0.82153 1.71238,0.85092 8.8878,0.41112 5.21367,-0.31956 6.27533,-0.52319 7.02047,-1.34656 0.62209,-0.6874 1.52135,-0.65677 2.37911,0.0811 0.92004,0.79138 1.1767,2.89937 0.89102,7.31819 -0.29719,4.59704 -0.26657,26.98585 0.0467,34.15031 0.43587,9.96805 1.3067,20.01006 2.2256,25.66458 0.201,1.23693 0.44292,3.26099 0.53758,4.49792 0.0947,1.23692 0.56354,4.57067 1.04195,7.40833 0.70093,4.15748 0.85868,5.77593 0.81235,8.33437 -0.0891,4.92167 -0.8424,6.25755 -3.5515,6.29842 -1.25509,0.0189 -1.43223,-0.0606 -2.41664,-1.08508 -2.7954,-2.90916 -13.95077,-0.26211 -14.0245,-0.17328 -0.17523,0.21114 -0.73215,0.3839 -1.23758,0.3839 -0.85125,0 -4.13303,-0.40359 -5.36885,-6.47139 -1.66348,-8.16751 -4.86523,-17.73793 -6.69143,-19.37132 -4.31656,-3.8608 -5.13789,-1.31302 -11.33397,-2.29771 -7.50686,0.0322 -4.27823,26.77182 -18.27977,29.14673 -11.8781,-2.4379 -11.81973,-0.93165 -12.6972,0.58491 -1.26106,2.17951 -1.82663,2.64215 -3.23004,2.64215 -0.87215,0 -1.23812,-0.17599 -1.78974,-0.72761 z m 107.42481,0.10108 c 0,-1.89763 -1.98548,-1.28576 -1.60284,-4.13597 0.28697,-2.1376 0.94111,-10.01751 1.32883,-16.0073 0.13188,-2.03729 0.36067,-4.71619 0.50843,-5.95312 0.14776,-1.23693 0.25249,-2.72521 0.23273,-3.30729 -0.0197,-0.58209 0.0411,-1.71318 0.13515,-2.51354 0.75766,-6.44531 1.26908,-32.94267 0.85281,-44.18542 -0.32455,-8.76584 -0.73641,-14.71473 -1.10822,-16.00729 -0.65002,-2.25974 0.002,-5.5009 1.26735,-6.30345 1.28214,-0.81297 2.13127,-0.78432 3.49329,0.11784 1.06106,0.70282 1.56404,0.85416 3.03446,0.91304 7.17915,0.2875 9.31073,0.3995 10.29539,0.54093 1.05186,0.15108 1.12428,0.12112 1.12137,-0.46384 -1.23761,-10.119 -1.64546,-22.561969 -6.60546,-31.705456 -1.4698,-2.657053 -0.19846,-5.626315 1.49486,-5.807864 6.09777,-0.653771 20.93535,-1.355428 35.00679,-1.373256 1.34516,-0.0017 3.46647,2.39832 3.88402,3.397654 0.37106,0.888083 0.35464,1.008176 -0.31311,2.289983 -0.94925,1.822167 -5.95118,31.193389 -5.21028,32.358589 0.44025,0.69238 1.66007,0.88848 3.85394,0.61957 1.18574,-0.14534 3.46558,-0.39498 5.06631,-0.55476 1.60073,-0.15978 3.80338,-0.40824 4.89479,-0.55215 2.32031,-0.30593 2.75444,-0.31479 3.88636,-0.0793 1.3227,0.27515 1.4549,1.0004 1.55826,8.54842 0.54647,39.92628 8.63326,83.59314 8.03477,86.08788 -0.30795,1.28372 -0.36775,1.34587 -2.05398,2.13496 -0.99517,0.46569 -2.34174,0.86291 -3.15349,0.93022 -3.44387,-0.26267 -8.32834,-4.56568 -11.41097,-6.64146 -9.22558,-6.20472 -2.14081,-10.30613 -17.42439,-37.61683 -0.21627,-0.38646 -0.65016,-0.4048 -4.19254,-0.17726 -2.17322,0.1396 -4.57643,0.39908 -5.34047,0.57663 -4.893,1.137 -8.85717,26.5026 -14.74374,33.81743 -3.4788,4.32286 -8.79661,10.1899 -14.91216,11.65424 -0.2422,-0.0136 -1.87826,0.25035 -1.87826,-0.6018 z"
       id="path1"
       sodipodi:nodetypes="ssssssscsssscssssssssssssssssssssssssssssssssssssssssssssssscssssssssssssssssssssssssssssssccssssssssscsscssscssssssssssssssssssssss" /></g></svg>
